<?xml version="1.0" encoding="iso-8859-1"?>
<!-- Generator: Adobe Illustrator 19.0.0, SVG Export Plug-In . SVG Version: 6.00 Build 0)  -->
<svg version="1.1" id="Capa_1" xmlns="http://www.w3.org/2000/svg" xmlns:xlink="http://www.w3.org/1999/xlink" x="0px" y="0px"
	 viewBox="0 0 512 512" style="enable-background:new 0 0 512 512;" xml:space="preserve">
<g>
	<path style="fill:#F2F2F2;" d="M315.733,144V58.667H196.267v86.4C121.6,169.6,67.2,241.067,67.2,324.267
		C67.2,427.733,151.467,512,256,512s188.8-84.267,188.8-188.8C444.8,240,390.4,168.533,315.733,144z"/>
	<path style="fill:#F2F2F2;" d="M327.467,0H184.533c-6.4,0-10.667,4.267-10.667,10.667V48c0,6.4,4.267,10.667,10.667,10.667H326.4
		c6.4,0,10.667-4.267,10.667-10.667V10.667C338.133,4.267,332.8,0,327.467,0z"/>
</g>
<rect x="196.267" y="58.667" style="fill:#E4EAEF;" width="118.4" height="16"/>
<path style="fill:#54C0EB;" d="M407.467,252.8c9.6,21.333,16,45.867,16,70.4c0,92.8-74.667,167.467-167.467,167.467
	S88.533,416,88.533,323.2c0-25.6,5.333-49.067,16-70.4c0,0,29.867-37.333,144,0C347.733,284.8,407.467,252.8,407.467,252.8z"/>
<g>
	<path style="fill:#84DBFF;" d="M104.533,252.8c-9.6,21.333-16,45.867-16,70.4C88.533,416,163.2,490.667,256,490.667
		S423.467,416,423.467,323.2c0-25.6-5.333-49.067-16-70.4c0,0-29.867-37.333-144,0C164.267,284.8,104.533,252.8,104.533,252.8z"/>
	<circle style="fill:#84DBFF;" cx="246.4" cy="202.667" r="22.4"/>
	<circle style="fill:#84DBFF;" cx="290.133" cy="173.867" r="14.933"/>
	<circle style="fill:#84DBFF;" cx="246.4" cy="149.333" r="9.6"/>
</g>
<g>
</g>
<g>
</g>
<g>
</g>
<g>
</g>
<g>
</g>
<g>
</g>
<g>
</g>
<g>
</g>
<g>
</g>
<g>
</g>
<g>
</g>
<g>
</g>
<g>
</g>
<g>
</g>
<g>
</g>
</svg>
