<?xml version="1.0" encoding="iso-8859-1"?>
<!-- Generator: Adobe Illustrator 19.0.0, SVG Export Plug-In . SVG Version: 6.00 Build 0)  -->
<svg version="1.1" id="Layer_1" xmlns="http://www.w3.org/2000/svg" xmlns:xlink="http://www.w3.org/1999/xlink" x="0px" y="0px"
	 viewBox="0 0 512.001 512.001" style="enable-background:new 0 0 512.001 512.001;" xml:space="preserve">
<path style="fill:#EFF2FA;" d="M388.414,123.587H17.656c-9.751,0-17.655,7.904-17.655,17.655v353.103
	c0,9.751,7.904,17.655,17.655,17.655h370.759c9.751,0,17.655-7.904,17.655-17.655V141.242
	C406.07,131.491,398.164,123.587,388.414,123.587z"/>
<g>
	<path style="fill:#D7DEED;" d="M406.07,141.242c0-9.751-7.905-17.655-17.655-17.655h-10.969L212.131,288.902l-15.605,34.332
		l-10.735,23.616c-1.687,3.713,2.132,7.532,5.845,5.844l16.832-7.651l41.114-18.689L406.07,169.867V141.242z"/>
	<path style="fill:#D7DEED;" d="M114.759,194.208H44.138c-4.875,0-8.828-3.953-8.828-8.828l0,0c0-4.875,3.953-8.828,8.828-8.828
		h70.621c4.875,0,8.828,3.953,8.828,8.828l0,0C123.587,190.255,119.634,194.208,114.759,194.208z"/>
	<path style="fill:#D7DEED;" d="M361.932,194.208h-26.483c-4.875,0-8.828-3.953-8.828-8.828l0,0c0-4.875,3.953-8.828,8.828-8.828
		h26.483c4.875,0,8.828,3.953,8.828,8.828l0,0C370.759,190.255,366.807,194.208,361.932,194.208z"/>
</g>
<path style="fill:#C7CFE2;" d="M300.138,194.208H150.07c-4.875,0-8.828-3.953-8.828-8.828l0,0c0-4.875,3.953-8.828,8.828-8.828
	h150.069c4.875,0,8.828,3.953,8.828,8.828l0,0C308.966,190.255,305.014,194.208,300.138,194.208z"/>
<g>
	<path style="fill:#D7DEED;" d="M150.07,282.484H44.138c-4.875,0-8.828-3.953-8.828-8.828l0,0c0-4.875,3.953-8.828,8.828-8.828
		H150.07c4.875,0,8.828,3.953,8.828,8.828l0,0C158.897,278.531,154.945,282.484,150.07,282.484z"/>
	<path style="fill:#D7DEED;" d="M105.932,326.622H44.138c-4.875,0-8.828-3.953-8.828-8.828l0,0c0-4.875,3.953-8.828,8.828-8.828
		h61.793c4.875,0,8.828,3.953,8.828,8.828l0,0C114.759,322.669,110.807,326.622,105.932,326.622z"/>
	<path style="fill:#D7DEED;" d="M361.932,326.622H220.69c-4.875,0-8.828-3.953-8.828-8.828l0,0c0-4.875,3.953-8.828,8.828-8.828
		h141.241c4.875,0,8.828,3.953,8.828,8.828l0,0C370.759,322.669,366.807,326.622,361.932,326.622z"/>
	<path style="fill:#D7DEED;" d="M361.932,282.484h-70.621c-4.875,0-8.828-3.953-8.828-8.828l0,0c0-4.875,3.953-8.828,8.828-8.828
		h70.621c4.875,0,8.828,3.953,8.828,8.828l0,0C370.759,278.531,366.807,282.484,361.932,282.484z"/>
</g>
<g>
	<path style="fill:#C7CFE2;" d="M256.001,282.483H185.38c-4.875,0-8.828-3.953-8.828-8.828l0,0c0-4.875,3.953-8.828,8.828-8.828
		h70.621c4.875,0,8.828,3.953,8.828,8.828l0,0C264.828,278.531,260.876,282.483,256.001,282.483z"/>
	<path style="fill:#C7CFE2;" d="M176.552,238.346H44.138c-4.875,0-8.828-3.953-8.828-8.828l0,0c0-4.875,3.953-8.828,8.828-8.828
		h132.414c4.875,0,8.828,3.953,8.828,8.828l0,0C185.38,234.393,181.427,238.346,176.552,238.346z"/>
	<path style="fill:#C7CFE2;" d="M167.725,326.622h-26.483c-4.875,0-8.828-3.953-8.828-8.828l0,0c0-4.875,3.953-8.828,8.828-8.828
		h26.483c4.875,0,8.828,3.953,8.828,8.828l0,0C176.552,322.669,172.6,326.622,167.725,326.622z"/>
</g>
<g>
	<path style="fill:#D7DEED;" d="M79.449,370.76h-35.31c-4.875,0-8.828-3.953-8.828-8.828l0,0c0-4.875,3.953-8.828,8.828-8.828h35.31
		c4.875,0,8.828,3.953,8.828,8.828l0,0C88.276,366.807,84.324,370.76,79.449,370.76z"/>
	<path style="fill:#D7DEED;" d="M247.173,414.898h-35.31c-4.875,0-8.828-3.953-8.828-8.828l0,0c0-4.875,3.953-8.828,8.828-8.828
		h35.31c4.875,0,8.828,3.953,8.828,8.828l0,0C256.001,410.945,252.048,414.898,247.173,414.898z"/>
	<path style="fill:#D7DEED;" d="M361.932,414.898h-79.448c-4.875,0-8.828-3.953-8.828-8.828l0,0c0-4.875,3.953-8.828,8.828-8.828
		h79.448c4.875,0,8.828,3.953,8.828,8.828l0,0C370.759,410.945,366.807,414.898,361.932,414.898z"/>
	<path style="fill:#D7DEED;" d="M361.932,370.76h-35.31c-4.875,0-8.828-3.953-8.828-8.828l0,0c0-4.875,3.953-8.828,8.828-8.828
		h35.31c4.875,0,8.828,3.953,8.828,8.828l0,0C370.759,366.807,366.807,370.76,361.932,370.76z"/>
</g>
<path style="fill:#C7CFE2;" d="M291.311,370.76H114.759c-4.875,0-8.828-3.953-8.828-8.828l0,0c0-4.875,3.953-8.828,8.828-8.828
	h176.552c4.875,0,8.828,3.953,8.828,8.828l0,0C300.138,366.807,296.186,370.76,291.311,370.76z"/>
<g>
	<path style="fill:#D7DEED;" d="M150.07,459.036H44.138c-4.875,0-8.828-3.953-8.828-8.828l0,0c0-4.875,3.953-8.828,8.828-8.828
		H150.07c4.875,0,8.828,3.953,8.828,8.828l0,0C158.897,455.083,154.945,459.036,150.07,459.036z"/>
	<path style="fill:#D7DEED;" d="M361.932,459.036h-61.793c-4.875,0-8.828-3.953-8.828-8.828l0,0c0-4.875,3.953-8.828,8.828-8.828
		h61.793c4.875,0,8.828,3.953,8.828,8.828l0,0C370.759,455.083,366.807,459.036,361.932,459.036z"/>
</g>
<g>
	<path style="fill:#C7CFE2;" d="M264.828,459.036H185.38c-4.875,0-8.828-3.953-8.828-8.828l0,0c0-4.875,3.953-8.828,8.828-8.828
		h79.448c4.875,0,8.828,3.953,8.828,8.828l0,0C273.656,455.083,269.703,459.036,264.828,459.036z"/>
	<path style="fill:#C7CFE2;" d="M176.552,414.898H44.138c-4.875,0-8.828-3.953-8.828-8.828l0,0c0-4.875,3.953-8.828,8.828-8.828
		h132.414c4.875,0,8.828,3.953,8.828,8.828l0,0C185.38,410.945,181.427,414.898,176.552,414.898z"/>
</g>
<path style="fill:#D7DEED;" d="M361.932,238.346H211.863c-4.875,0-8.828-3.953-8.828-8.828l0,0c0-4.875,3.953-8.828,8.828-8.828
	h150.069c4.875,0,8.828,3.953,8.828,8.828l0,0C370.759,234.393,366.807,238.346,361.932,238.346z"/>
<rect x="330.762" y="-27.281" transform="matrix(-0.7071 -0.7071 0.7071 -0.7071 481.7014 498.0656)" style="fill:#FFC36E;" width="26.483" height="353.1"/>
<rect x="349.487" y="-8.556" transform="matrix(-0.7071 -0.7071 0.7071 -0.7071 500.4259 543.2719)" style="fill:#FFD782;" width="26.483" height="353.1"/>
<path style="fill:#EFF2FA;" d="M496.931,52.523l-37.452-37.452l12.484-12.484c3.447-3.447,9.037-3.447,12.484,0l24.968,24.968
	c3.447,3.447,3.447,9.037,0,12.484L496.931,52.523z"/>
<g>
	<path style="fill:#D7DEED;" d="M478.204,33.796L459.478,15.07l12.484-12.484c3.447-3.447,9.037-3.447,12.484,0l12.484,12.484
		L478.204,33.796z"/>
	<polygon style="fill:#D7DEED;" points="198.621,313.38 228.524,283.478 209.797,264.753 191.108,305.867 	"/>
</g>
<polygon style="fill:#FFFFFF;" points="206.135,320.894 247.249,302.205 228.524,283.478 198.621,313.38 "/>
<path style="fill:#707487;" d="M189.302,328.544l23.616-10.734l-18.727-18.727l-10.734,23.616
	C181.769,326.412,185.588,330.232,189.302,328.544z"/>
<g>
</g>
<g>
</g>
<g>
</g>
<g>
</g>
<g>
</g>
<g>
</g>
<g>
</g>
<g>
</g>
<g>
</g>
<g>
</g>
<g>
</g>
<g>
</g>
<g>
</g>
<g>
</g>
<g>
</g>
</svg>
